<svg id="Illustration" xmlns="http://www.w3.org/2000/svg" xmlns:xlink="http://www.w3.org/1999/xlink" width="472.238" height="407.842" viewBox="0 0 472.238 407.842">
  <defs>
    <linearGradient id="linear-gradient" x1="0.5" y1="1" x2="0.5" gradientUnits="objectBoundingBox">
      <stop offset="0" stop-color="gray" stop-opacity="0.251"/>
      <stop offset="0.54" stop-color="gray" stop-opacity="0.122"/>
      <stop offset="1" stop-color="gray" stop-opacity="0.102"/>
    </linearGradient>
    <linearGradient id="linear-gradient-2" x1="0.301" y1="1.035" x2="0.713" y2="0.047" xlink:href="#linear-gradient"/>
    <linearGradient id="linear-gradient-3" x1="0.302" y1="1.03" x2="0.714" y2="0.041" xlink:href="#linear-gradient"/>
  </defs>
  <g id="Group" transform="translate(161.293 11.208)" opacity="0.8">
    <ellipse id="Oval" cx="82.204" cy="63.423" rx="82.204" ry="63.423" transform="translate(0 0)" fill="url(#linear-gradient)"/>
  </g>
  <ellipse id="Oval-2" data-name="Oval" cx="80.495" cy="62.384" rx="80.495" ry="62.384" transform="translate(162.332 12.074)" fill="#0f70eb"/>
  <path id="Path" d="M12.753,69.608C12.753,35.086,48.628,7.1,92.885,7.1a97.652,97.652,0,0,1,39.932,8.3C118.732,5.82,100.305,0,80.138,0,35.88,0,0,27.986,0,62.509c0,23.18,16.178,43.414,40.212,54.209C23.385,105.257,12.753,88.4,12.753,69.608Z" transform="translate(162.332 12.074)" fill="#fff" opacity="0.1"/>
  <path id="Path-2" data-name="Path" d="M178.431,0l89.215,154.285,89.215,154.279H0L89.215,154.285,178.431,0Z" transform="translate(64.396 99.277)" fill="#335eea" opacity="0.2"/>
  <g id="Group-2" data-name="Group" transform="translate(191.894 251.046)" opacity="0.3">
    <path id="Path-3" data-name="Path" d="M72.573,66.846l6.959-20.568A35.144,35.144,0,0,0,66.438,6.43l.056-.034a34.752,34.752,0,0,0-8.912-4.5h0l-.1-.034-.107-.034h0A34.863,34.863,0,0,0,47.841.044a33.592,33.592,0,0,0-3.448,0,35.307,35.307,0,0,0-5.92.815c-.564.124-1.129.264-1.642.416s-1.089.315-1.625.489c-1.072.354-2.128.753-3.161,1.209-.519.225-1.033.461-1.535.714A34.725,34.725,0,0,0,26.134,6.25c-.468.32-.926.652-1.377.989A34.856,34.856,0,0,0,12.77,23.878L1.832,56.284A34.64,34.64,0,0,0,.319,72.091c.113.815.254,1.625.418,2.428s.367,1.6.564,2.383c.152.523.31,1.046.485,1.563.26.77.564,1.54.852,2.293.209.5.429,1,.66,1.5.457.984.965,1.945,1.513,2.884A30.4,30.4,0,0,0,6.6,87.881c.474.663.976,1.315,1.5,1.945A29.4,29.4,0,0,0,10.3,92.259a34.9,34.9,0,0,0,11.852,7.808h0l.192.079a12.17,12.17,0,0,1,.79-1.22c1.693-2.31,4.639-3.935,7.444-3.328.2.045.406.107.61.169,1.422.5,2.822,1.394,4.193,1.833a3.773,3.773,0,0,0,3.166-.039c2.743-1.456,1.727-6.048,4.081-8.061a3.668,3.668,0,0,1,.344-.259,1.057,1.057,0,0,1-.09-.129c1.817-1.124,4.335-.377,6.428.349,2.258.793,5.2,1.327,6.773-.512,1.061-1.259.982-3.176,1.992-4.5,1.174-1.518,3.386-1.686,5.3-1.417l.1.028c3.669,1.506,7.676-.995,7.394-4.935A30.672,30.672,0,0,1,72.573,66.846Z" transform="translate(0 0)" fill="url(#linear-gradient-2)"/>
  </g>
  <path id="Path-4" data-name="Path" d="M22,95.412c1.634-2.251,4.436-3.826,7.122-3.213s5.231,3.185,7.62,1.9c3.267-1.756.951-8.21,6.255-8.688a6.924,6.924,0,0,1,3.228.563c2.238.917,5.74,1.953,7.463-.113,1.013-1.215.94-3.067,1.908-4.327,1.119-1.463,3.25-1.649,5.069-1.367l.09.028a4.957,4.957,0,0,0,7.072-4.766,29.585,29.585,0,0,1,1.594-10.872l6.646-19.87A34.023,34.023,0,0,0,54.889,1.753h0a33.735,33.735,0,0,0-42.67,21.3L1.741,54.306a34.041,34.041,0,0,0,19.48,42.288A12.088,12.088,0,0,1,22,95.412Z" transform="translate(193.188 252.218)" fill="#fff"/>
  <circle id="Oval-3" data-name="Oval" cx="3.354" cy="3.354" r="3.354" transform="translate(224.045 269.658)" opacity="0.2"/>
  <circle id="Oval-4" data-name="Oval" cx="3.354" cy="3.354" r="3.354" transform="translate(245.51 276.366)" opacity="0.2"/>
  <ellipse id="Oval-5" data-name="Oval" cx="5.475" cy="3.652" rx="5.475" ry="3.652" transform="translate(228.432 294.084) rotate(-71.4)" fill="#e0e0e0"/>
  <circle id="Oval-6" data-name="Oval" cx="5.366" cy="5.366" r="5.366" transform="translate(304.54 268.317)" fill="#fff"/>
  <circle id="Oval-7" data-name="Oval" cx="2.683" cy="2.683" r="2.683" transform="translate(324.663 261.609)" fill="#fff"/>
  <g id="Group-3" data-name="Group" transform="translate(198.602 31.026)" opacity="0.5">
    <g id="Group-4" data-name="Group" transform="translate(0 0)" opacity="0.3">
      <path id="Path-5" data-name="Path" d="M72.573,66.846l6.959-20.568A35.144,35.144,0,0,0,66.438,6.43l.056-.034a34.752,34.752,0,0,0-8.912-4.5h0l-.1-.034-.107-.034h0A34.863,34.863,0,0,0,47.841.044a33.592,33.592,0,0,0-3.448,0,35.307,35.307,0,0,0-5.92.815c-.564.124-1.129.264-1.642.416s-1.089.315-1.625.489c-1.072.354-2.128.753-3.161,1.209-.519.225-1.033.461-1.535.714A34.725,34.725,0,0,0,26.134,6.25c-.468.32-.926.652-1.377.989A34.856,34.856,0,0,0,12.77,23.878L1.832,56.284A34.64,34.64,0,0,0,.319,72.091c.113.815.254,1.625.418,2.428s.367,1.6.564,2.383c.152.523.31,1.046.485,1.563.26.77.564,1.54.852,2.293.209.5.429,1,.66,1.5.457.984.965,1.945,1.513,2.884A30.4,30.4,0,0,0,6.6,87.881c.474.663.976,1.315,1.5,1.945.7.843,1.434,1.658,2.212,2.434a34.9,34.9,0,0,0,11.852,7.808h0l.192.079a12.17,12.17,0,0,1,.79-1.22c1.693-2.31,4.639-3.935,7.444-3.328.2.045.406.107.61.169,1.422.5,2.822,1.394,4.193,1.833a3.773,3.773,0,0,0,3.166-.039c2.743-1.456,1.727-6.048,4.081-8.061a3.668,3.668,0,0,1,.344-.259,1.057,1.057,0,0,1-.09-.129c1.817-1.124,4.335-.377,6.428.349,2.258.793,5.2,1.327,6.773-.512,1.061-1.259.982-3.176,1.992-4.5,1.174-1.518,3.386-1.686,5.3-1.417h.1c3.669,1.506,7.676-.995,7.394-4.935A30.607,30.607,0,0,1,72.573,66.846Z" fill="url(#linear-gradient-3)"/>
    </g>
    <path id="Path-6" data-name="Path" d="M22.193,95.31c1.648-2.248,4.476-3.822,7.185-3.21s5.277,3.182,7.687,1.894c3.3-1.754.959-8.2,6.31-8.679a7.046,7.046,0,0,1,3.257.562c2.258.916,5.791,1.951,7.529-.112,1.022-1.214.948-3.064,1.925-4.323,1.129-1.461,3.279-1.647,5.113-1.366l.09.028c3.539,1.456,7.41-.961,7.134-4.761a29.291,29.291,0,0,1,1.609-10.86l6.7-19.848A33.909,33.909,0,0,0,55.373,1.752h0A34.11,34.11,0,0,0,12.327,23.033L1.756,54.248A33.906,33.906,0,0,0,21.408,96.491,12.064,12.064,0,0,1,22.193,95.31Z" transform="translate(1.582 1.885)" fill="#fff"/>
    <ellipse id="Oval-8" data-name="Oval" cx="3.674" cy="3.659" rx="3.674" ry="3.659" transform="translate(32.597 18.139)" opacity="0.2"/>
    <ellipse id="Oval-9" data-name="Oval" cx="3.674" cy="3.659" rx="3.674" ry="3.659" transform="translate(53.49 25.137)" opacity="0.2"/>
  </g>
  <path id="Path-7" data-name="Path" d="M156.215,0a49.266,49.266,0,0,1,1.57,12.384c0,34.489-36.087,62.448-80.607,62.448C40.742,74.81,9.958,56.088,0,30.4,7.4,58.975,39.966,80.5,79.036,80.5c44.519,0,80.612-27.959,80.612-62.448A49.626,49.626,0,0,0,156.215,0Z" transform="translate(163.673 55.005)" opacity="0.1"/>
  <g id="Group-5" data-name="Group" transform="translate(76.93 57.839)" opacity="0.8">
    <ellipse id="Oval-10" data-name="Oval" cx="165.897" cy="43.272" rx="165.897" ry="43.272" transform="translate(0 0)" fill="url(#linear-gradient)"/>
  </g>
  <path id="Path-8" data-name="Path" d="M160.99,0C72.081,0,0,18.617,0,41.589H321.98C321.98,18.617,249.9,0,160.99,0Z" transform="translate(81.837 59.03)" fill="#fff"/>
  <path id="Path-9" data-name="Path" d="M160.99,41.589C249.9,41.589,321.98,22.97,321.98,0H0C0,22.97,72.081,41.589,160.99,41.589Z" transform="translate(81.837 101.96)" fill="#fff"/>
  <path id="Path-10" data-name="Path" d="M160.99,41.589C249.9,41.589,321.98,22.97,321.98,0H0C0,22.97,72.081,41.589,160.99,41.589Z" transform="translate(81.837 101.96)" opacity="0.05"/>
  <rect id="Rectangle" width="152.941" height="21.465" rx="10.733" transform="translate(166.356 91.228)" opacity="0.05"/>
  <path id="Path-11" data-name="Path" d="M7.389,4.091A2.21,2.21,0,0,1,6.156,1.423,1.117,1.117,0,0,0,6.2,1.177h0A1.106,1.106,0,0,0,4.214.444h0a1.093,1.093,0,0,0-.12.216,2.207,2.207,0,0,1-2.67,1.232,1.2,1.2,0,0,0-.247-.048h0A1.105,1.105,0,0,0,.444,3.832h0a.974.974,0,0,0,.216.126A2.21,2.21,0,0,1,1.893,6.626a1.135,1.135,0,0,0-.048.24h0a1.106,1.106,0,0,0,1.99.739h0a.991.991,0,0,0,.12-.222,2.207,2.207,0,0,1,2.67-1.2,1.2,1.2,0,0,0,.247.048h0a1.105,1.105,0,0,0,.734-1.989h0A.974.974,0,0,0,7.389,4.091Z" transform="translate(68.421 28.173)" fill="#4d8af0" opacity="0.5"/>
  <path id="Path-12" data-name="Path" d="M7.386,4.091A2.208,2.208,0,0,1,6.179,1.423a1.113,1.113,0,0,0,.048-.246h0a1.111,1.111,0,0,0-2-.733h0A1.092,1.092,0,0,0,4.109.66,2.218,2.218,0,0,1,1.43,1.892a1.212,1.212,0,0,0-.247-.048h0A1.1,1.1,0,0,0,.446,3.832h0a.979.979,0,0,0,.217.126A2.208,2.208,0,0,1,1.87,6.626a1.131,1.131,0,0,0-.048.24h0a1.111,1.111,0,0,0,2,.739h0a.99.99,0,0,0,.121-.222,2.218,2.218,0,0,1,2.68-1.2,1.212,1.212,0,0,0,.247.048h0A1.1,1.1,0,0,0,7.6,4.241h0a.978.978,0,0,0-.217-.15Z" transform="translate(354.178 199.896)" fill="#4d8af0" opacity="0.5"/>
  <path id="Path-13" data-name="Path" d="M7.389,4.091A2.21,2.21,0,0,1,6.156,1.423,1.117,1.117,0,0,0,6.2,1.177h0A1.106,1.106,0,0,0,4.214.444h0a1.093,1.093,0,0,0-.12.216,2.207,2.207,0,0,1-2.67,1.232,1.2,1.2,0,0,0-.247-.048h0A1.105,1.105,0,0,0,.444,3.832h0a.974.974,0,0,0,.216.126A2.21,2.21,0,0,1,1.893,6.626a1.135,1.135,0,0,0-.048.24h0a1.106,1.106,0,0,0,1.99.739h0a.991.991,0,0,0,.12-.222,2.207,2.207,0,0,1,2.67-1.2,1.2,1.2,0,0,0,.247.048h0a1.105,1.105,0,0,0,.734-1.989h0A.974.974,0,0,0,7.389,4.091Z" transform="translate(38.906 279.049)" fill="#4d8af0" opacity="0.5"/>
  <path id="Path-14" data-name="Path" d="M7.359,4.091a2.21,2.21,0,0,1-1.2-2.668A1.117,1.117,0,0,0,6.2,1.177h0A1.106,1.106,0,0,0,4.214.444h0a1.093,1.093,0,0,0-.12.216,2.207,2.207,0,0,1-2.67,1.232,1.2,1.2,0,0,0-.247-.048h0A1.105,1.105,0,0,0,.444,3.832h0a.974.974,0,0,0,.216.126A2.21,2.21,0,0,1,1.893,6.626a1.135,1.135,0,0,0-.048.24h0a1.106,1.106,0,0,0,1.99.739h0a.991.991,0,0,0,.12-.222,2.207,2.207,0,0,1,2.67-1.2,1.2,1.2,0,0,0,.247.048h0a1.105,1.105,0,0,0,.734-1.989h0A.974.974,0,0,0,7.359,4.091Z" transform="translate(8.05 93.911)" fill="#4d8af0" opacity="0.5"/>
  <path id="Path-15" data-name="Path" d="M7.388,4.058A2.2,2.2,0,0,1,6.206,1.412a1.117,1.117,0,0,0,.047-.244h0a1.1,1.1,0,0,0-.709-1.1A1.083,1.083,0,0,0,4.3.44h0a1.087,1.087,0,0,0-.118.215A2.164,2.164,0,0,1,1.554,1.847,1.174,1.174,0,0,0,1.311,1.8h0a1.086,1.086,0,0,0-1.243.69A1.1,1.1,0,0,0,.56,3.831h0a.956.956,0,0,0,.213.125A2.2,2.2,0,0,1,1.956,6.6a1.134,1.134,0,0,0-.047.238h0a1.1,1.1,0,0,0,.724,1.147,1.083,1.083,0,0,0,1.275-.444h0a.986.986,0,0,0,.118-.221A2.164,2.164,0,0,1,6.649,6.132a1.174,1.174,0,0,0,.242.048h0a1.088,1.088,0,0,0,1.091-.715,1.1,1.1,0,0,0-.369-1.258h0a.957.957,0,0,0-.225-.149Z" transform="translate(348.812 0)" fill="#4d8af0" opacity="0.5"/>
  <g id="Group-6" data-name="Group" transform="translate(57.688 144.056)" opacity="0.5">
    <rect id="Rectangle-2" data-name="Rectangle" width="1.657" height="10.136" transform="translate(3.867 0)" fill="#47e6b1"/>
    <rect id="Rectangle-3" data-name="Rectangle" width="1.789" height="9.391" transform="translate(9.391 4.174) rotate(90)" fill="#47e6b1"/>
  </g>
  <g id="Group-7" data-name="Group" transform="translate(462.847 99.784)" opacity="0.5">
    <rect id="Rectangle-4" data-name="Rectangle" width="1.657" height="10.136" transform="translate(3.867 0)" fill="#47e6b1"/>
    <rect id="Rectangle-5" data-name="Rectangle" width="1.789" height="9.391" transform="translate(9.391 4.174) rotate(90)" fill="#47e6b1"/>
  </g>
  <g id="Group-8" data-name="Group" transform="translate(406.5 255.408)" opacity="0.5">
    <rect id="Rectangle-6" data-name="Rectangle" width="1.657" height="10.136" transform="translate(3.867 0)" fill="#47e6b1"/>
    <rect id="Rectangle-7" data-name="Rectangle" width="1.789" height="9.391" transform="translate(9.391 4.174) rotate(90)" fill="#47e6b1"/>
  </g>
  <circle id="Oval-11" data-name="Oval" cx="3.354" cy="3.354" r="3.354" transform="translate(402.475 42.931)" fill="#f55f44" opacity="0.5"/>
  <circle id="Oval-12" data-name="Oval" cx="3.354" cy="3.354" r="3.354" transform="translate(0 4.025)" fill="#f55f44" opacity="0.5"/>
  <circle id="Oval-13" data-name="Oval" cx="3.354" cy="3.354" r="3.354" transform="translate(101.96 197.213)" fill="#f55f44" opacity="0.5"/>
  <ellipse id="Oval-14" data-name="Oval" cx="18.782" cy="4.025" rx="18.782" ry="4.025" transform="translate(112.693 83.178)" opacity="0.05"/>
  <ellipse id="Oval-15" data-name="Oval" cx="18.782" cy="4.025" rx="18.782" ry="4.025" transform="translate(112.693 112.693)" opacity="0.05"/>
  <ellipse id="Oval-16" data-name="Oval" cx="18.782" cy="4.025" rx="18.782" ry="4.025" transform="translate(330.03 83.178)" opacity="0.05"/>
  <ellipse id="Oval-17" data-name="Oval" cx="18.782" cy="4.025" rx="18.782" ry="4.025" transform="translate(330.03 112.693)" opacity="0.05"/>
  <ellipse id="Oval-18" data-name="Oval" cx="18.782" cy="4.025" rx="18.782" ry="4.025" transform="translate(224.045 65.738)" opacity="0.05"/>
  <ellipse id="Oval-19" data-name="Oval" cx="18.782" cy="4.025" rx="18.782" ry="4.025" transform="translate(237.46 25.49)" opacity="0.05"/>
  <ellipse id="Oval-20" data-name="Oval" cx="18.782" cy="4.025" rx="18.782" ry="4.025" transform="translate(201.238 41.589)" opacity="0.05"/>
  <ellipse id="Oval-21" data-name="Oval" cx="18.782" cy="4.025" rx="18.782" ry="4.025" transform="translate(272.342 48.297)" opacity="0.05"/>
  <ellipse id="Oval-22" data-name="Oval" cx="18.782" cy="4.025" rx="18.782" ry="4.025" transform="translate(224.045 124.767)" opacity="0.05"/>
</svg>
