<svg xmlns="http://www.w3.org/2000/svg" width="58.295" height="65" viewBox="0 0 64.295 71">
  <path id="Icon_simple-webpack" data-name="Icon simple-webpack" d="M65.818,57.295l-28.9,16.277V60.894l18.008-9.862,10.894,6.263Zm1.977-1.783V21.471L57.218,27.549V49.428ZM5.477,57.295l28.9,16.277V60.894L16.371,51.032,5.477,57.295ZM3.5,55.512V21.471l10.576,6.077V49.428L3.5,55.512ZM4.737,19.269l29.642-16.7V14.83l-18.99,10.4-.145.083L4.737,19.269Zm61.821,0L36.916,2.572V14.83l18.99,10.4.145.083,10.507-6.043ZM34.379,58.011,16.613,48.286V29.015L34.378,39.228V58.011Zm2.537,0,17.766-9.725V29.015L36.916,39.228V58.011Zm-19.1-31.226,17.835-9.767,17.835,9.767L35.651,37.04Z" transform="translate(-3.5 -2.572)" fill="#0076ff"/>
</svg>
