<svg xmlns="http://www.w3.org/2000/svg" width="47.571" height="57.333" viewBox="0 0 52.571 61.333">
  <path id="Icon_metro-file-code" data-name="Icon metro-file-code" d="M52.815,15.209a7.964,7.964,0,0,1,1.643,2.6,7.9,7.9,0,0,1,.684,3.012V60.251a3.272,3.272,0,0,1-3.286,3.286h-46a3.169,3.169,0,0,1-2.327-.958,3.169,3.169,0,0,1-.958-2.327V5.489a3.169,3.169,0,0,1,.958-2.327A3.169,3.169,0,0,1,5.856,2.2H36.523a7.9,7.9,0,0,1,3.012.685,7.964,7.964,0,0,1,2.6,1.643Zm-15.2-8.351V19.727H50.487a3.739,3.739,0,0,0-.753-1.4L39.022,7.611a3.738,3.738,0,0,0-1.4-.753Zm13.143,52.3V24.108H36.523a3.272,3.272,0,0,1-3.286-3.286V6.584H6.952V59.156h43.81ZM19,28.489a1,1,0,0,1,.719-.428,1.133,1.133,0,0,1,.821.222l1.746,1.3a1,1,0,0,1,.428.719,1.133,1.133,0,0,1-.222.821l-6.229,8.317,6.229,8.317a1.133,1.133,0,0,1,.222.821,1,1,0,0,1-.428.719l-1.746,1.3a1.133,1.133,0,0,1-.821.222A1,1,0,0,1,19,50.394l-7.735-10.3a1,1,0,0,1,0-1.3Zm27.449,10.3a1,1,0,0,1,0,1.3l-7.735,10.3a1,1,0,0,1-.719.428,1.133,1.133,0,0,1-.821-.222l-1.746-1.3A1,1,0,0,1,35,48.58a1.133,1.133,0,0,1,.222-.821l6.229-8.317-6.229-8.317A1.133,1.133,0,0,1,35,30.3a1,1,0,0,1,.428-.719l1.746-1.3a1.133,1.133,0,0,1,.821-.222,1,1,0,0,1,.719.428ZM25.228,54.57a1,1,0,0,1-.7-.445,1.111,1.111,0,0,1-.188-.821l4.723-28.442a1,1,0,0,1,.445-.7,1.111,1.111,0,0,1,.821-.188l2.156.342a1,1,0,0,1,.7.445,1.111,1.111,0,0,1,.188.821L28.651,54.022a1,1,0,0,1-.445.7,1.111,1.111,0,0,1-.821.188Z" transform="translate(-2.571 -2.203)" fill="#0076ff"/>
</svg>
