<svg xmlns="http://www.w3.org/2000/svg" width="250" height="59.145" viewBox="0 0 220 59.145">
  <g id="Group_5127" data-name="Group 5127" transform="translate(-879 -2253)">
    <g id="Light_LOGO" data-name="Light/LOGO" transform="translate(951 2256)">
      <text id="LOGO" transform="translate(0 40)" fill="#fff" font-size="40" font-family="SegoeUI, Segoe UI"><tspan x="0" y="0">Code</tspan><tspan y="0" font-family="SegoeUI-Bold, Segoe UI" font-weight="700">DB</tspan></text>
    </g>
    <g id="Group_5126" data-name="Group 5126" transform="translate(-121.521 1717.975)">
      <path id="Path_360" data-name="Path 360" d="M1025.7,583.819c-6.282-1.283-13.032-6.156-13.032-9.234a10.683,10.683,0,0,0-.921-5.024,7.3,7.3,0,0,0-1.158-1.85,8.547,8.547,0,0,0-2-1.7,8.63,8.63,0,0,0,2-1.692,7.232,7.232,0,0,0,1.159-1.83,11.571,11.571,0,0,0,.921-5.055c0-2.562,6.75-7.809,13.031-9.2v-6.2a24.15,24.15,0,0,0-20.642,18.7,6.367,6.367,0,0,1-.474.736,4.761,4.761,0,0,1-4.063,1.716V568.9a4.762,4.762,0,0,1,4.063,1.715,6.466,6.466,0,0,1,.5.772,23.893,23.893,0,0,0,.779,2.689,24.238,24.238,0,0,0,19.841,15.918Z" fill="#fff"/>
      <path id="Path_361" data-name="Path 361" d="M1097.249,672.395a2.86,2.86,0,1,1-2.86-2.859A2.86,2.86,0,0,1,1097.249,672.395Z" transform="translate(-75.91 -106.356)" fill="#fff"/>
      <path id="Path_362" data-name="Path 362" d="M1158.006,672.395a2.859,2.859,0,1,1-2.86-2.859A2.86,2.86,0,0,1,1158.006,672.395Z" transform="translate(-126.587 -106.356)" fill="#fff"/>
      <path id="Path_363" data-name="Path 363" d="M1218.761,672.395a2.86,2.86,0,1,1-2.86-2.859A2.86,2.86,0,0,1,1218.761,672.395Z" transform="translate(-177.262 -106.356)" fill="#fff"/>
      <path id="Path_364" data-name="Path 364" d="M1208.814,561.464a6.308,6.308,0,0,1-.474-.736,24.22,24.22,0,0,0-20.643-18.7v6.2c6.282,1.395,13.032,6.642,13.032,9.2a11.571,11.571,0,0,0,.922,5.055,7.228,7.228,0,0,0,1.159,1.83,8.619,8.619,0,0,0,2,1.692,8.525,8.525,0,0,0-2,1.7,7.287,7.287,0,0,0-1.158,1.85,10.682,10.682,0,0,0-.921,5.024c0,3.078-6.75,7.952-13.032,9.234V594.17l5.536-5.535a24.128,24.128,0,0,0,15.085-17.249,6.591,6.591,0,0,1,.5-.772,4.763,4.763,0,0,1,4.063-1.715V563.18A4.762,4.762,0,0,1,1208.814,561.464Z" transform="translate(-156.122)" fill="#fff"/>
    </g>
  </g>
</svg>
