<svg xmlns="http://www.w3.org/2000/svg" width="16.429" height="11.5" viewBox="0 0 16.429 11.5">
  <path id="Icon_awesome-vote-yea" data-name="Icon awesome-vote-yea" d="M15.607,9.643H13.964v1.643h.575a.229.229,0,0,1,.246.205V11.9a.229.229,0,0,1-.246.205H1.889a.229.229,0,0,1-.246-.205v-.411a.229.229,0,0,1,.246-.205h.575V9.643H.821A.821.821,0,0,0,0,10.464v2.464a.821.821,0,0,0,.821.821H15.607a.821.821,0,0,0,.821-.821V10.464A.821.821,0,0,0,15.607,9.643Zm-2.464,1.643V3.079a.829.829,0,0,0-.829-.829h-8.2a.831.831,0,0,0-.832.829v8.207ZM5.421,6.614l.655-.649a.274.274,0,0,1,.39,0l1.06,1.068L9.97,4.612a.274.274,0,0,1,.39,0l.649.655a.274.274,0,0,1,0,.39L7.714,8.924a.274.274,0,0,1-.39,0L5.421,7A.273.273,0,0,1,5.421,6.614Z" transform="translate(0 -2.25)"/>
</svg>
