<svg xmlns="http://www.w3.org/2000/svg" width="13.274" height="9.292" viewBox="0 0 13.274 9.292">
  <path id="Icon_awesome-vote-yea" data-name="Icon awesome-vote-yea" d="M12.611,8.223H11.283V9.551h.465a.185.185,0,0,1,.2.166v.332a.185.185,0,0,1-.2.166H1.527a.185.185,0,0,1-.2-.166V9.717a.185.185,0,0,1,.2-.166h.465V8.223H.664A.663.663,0,0,0,0,8.887v1.991a.663.663,0,0,0,.664.664H12.611a.663.663,0,0,0,.664-.664V8.887A.663.663,0,0,0,12.611,8.223ZM10.619,9.551V2.92a.67.67,0,0,0-.67-.67H3.327a.671.671,0,0,0-.672.67V9.551ZM4.381,5.776l.529-.525a.221.221,0,0,1,.315,0l.857.863L8.056,4.158a.221.221,0,0,1,.315,0l.525.529a.221.221,0,0,1,0,.315L6.233,7.643a.221.221,0,0,1-.315,0L4.381,6.091A.221.221,0,0,1,4.381,5.776Z" transform="translate(0 -2.25)" fill="#ffbe00"/>
</svg>
